<svg width="20" height="14" viewBox="0 0 20 14" fill="none" xmlns="http://www.w3.org/2000/svg">
<path d="M11 4H1C0.45 4 0 4.45 0 5C0 5.55 0.45 6 1 6H11C11.55 6 12 5.55 12 5C12 4.45 11.55 4 11 4ZM11 0H1C0.45 0 0 0.45 0 1C0 1.55 0.45 2 1 2H11C11.55 2 12 1.55 12 1C12 0.45 11.55 0 11 0ZM16 8V5C16 4.45 15.55 4 15 4C14.45 4 14 4.45 14 5V8H11C10.45 8 10 8.45 10 9C10 9.55 10.45 10 11 10H14V13C14 13.55 14.45 14 15 14C15.55 14 16 13.55 16 13V10H19C19.55 10 20 9.55 20 9C20 8.45 19.55 8 19 8H16ZM1 10H7C7.55 10 8 9.55 8 9C8 8.45 7.55 8 7 8H1C0.45 8 0 8.45 0 9C0 9.55 0.45 10 1 10Z" fill="white"/>
</svg>
