<svg width="20" height="21" viewBox="0 0 20 21" fill="none" xmlns="http://www.w3.org/2000/svg">
<g clip-path="url(#clip0_729_6607)">
<path d="M16.6667 2.16669H3.33332C2.41666 2.16669 1.67499 2.91669 1.67499 3.83335L1.66666 18.8334L4.99999 15.5H16.6667C17.5833 15.5 18.3333 14.75 18.3333 13.8334V3.83335C18.3333 2.91669 17.5833 2.16669 16.6667 2.16669ZM16.6667 13.8334H4.30832L3.81666 14.325L3.33332 14.8084V3.83335H16.6667V13.8334ZM4.99999 10.5H6.66666V12.1667H4.99999V10.5ZM4.99999 8.00002H6.66666V9.66669H4.99999V8.00002ZM4.99999 5.50002H6.66666V7.16669H4.99999V5.50002ZM8.33332 10.5H12.5V12.1667H8.33332V10.5ZM8.33332 8.00002H15V9.66669H8.33332V8.00002ZM8.33332 5.50002H15V7.16669H8.33332V5.50002Z" fill="white"/>
</g>
<defs>
<clipPath id="clip0_729_6607">
<rect width="20" height="20" fill="white" transform="translate(0 0.5)"/>
</clipPath>
</defs>
</svg>
