<svg width="24" height="24" viewBox="0 0 24 24" fill="none" xmlns="http://www.w3.org/2000/svg">
<path d="M1.5 4.5C1.5 3.67031 2.17031 3 3 3H21C21.8297 3 22.5 3.67031 22.5 4.5C22.5 5.32969 21.8297 6 21 6H3C2.17031 6 1.5 5.32969 1.5 4.5ZM1.5 12C1.5 11.1703 2.17031 10.5 3 10.5H17C17.8297 10.5 18.5 11.1703 18.5 12C18.5 12.8297 17.8297 13.5 17 13.5H3C2.17031 13.5 1.5 12.8297 1.5 12ZM13.5 19.5C13.5 20.3297 12.8297 21 12 21H3C2.17031 21 1.5 20.3297 1.5 19.5C1.5 18.6703 2.17031 18 3 18H12C12.8297 18 13.5 18.6703 13.5 19.5Z" fill="black"/>
</svg>
