<svg width="20" height="21" viewBox="0 0 20 21" fill="none" xmlns="http://www.w3.org/2000/svg">
<g clip-path="url(#clip0_861_1358)">
<path d="M14.1667 16.5167H4.16667V6.33332H10V4.66666H4.16667C3.25 4.66666 2.5 5.41666 2.5 6.33332V16.3333C2.5 17.25 3.25 18 4.16667 18H14.1667C15.0833 18 15.8333 17.25 15.8333 16.3333V10.5H14.1667V16.5167Z" fill="white"/>
<path d="M15.8333 2.16666H14.1666V4.66666H11.6666C11.675 4.67499 11.6666 6.33332 11.6666 6.33332H14.1666V8.82499C14.175 8.83332 15.8333 8.82499 15.8333 8.82499V6.33332H18.3333V4.66666H15.8333V2.16666Z" fill="white"/>
<path d="M12.5 8H5.83337V9.66667H12.5V8Z" fill="white"/>
<path d="M5.83337 10.5V12.1667H12.5V10.5H10H5.83337Z" fill="white"/>
<path d="M12.5 13H5.83337V14.6667H12.5V13Z" fill="white"/>
</g>
<defs>
<clipPath id="clip0_861_1358">
<rect width="20" height="20" fill="white" transform="translate(0 0.5)"/>
</clipPath>
</defs>
</svg>
