<?xml version="1.0" encoding="UTF-8" standalone="no"?><!DOCTYPE svg PUBLIC "-//W3C//DTD SVG 1.1//EN" "http://www.w3.org/Graphics/SVG/1.1/DTD/svg11.dtd"><!-- Generated by graphviz version 2.40.1 (20161225.0304)
 --><!-- Title: G Pages: 1 --><svg xmlns="http://www.w3.org/2000/svg" xmlns:xlink="http://www.w3.org/1999/xlink" width="2390pt" height="1001pt" viewBox="0.00 0.00 2390.00 1001.40">
<g id="graph0" class="graph" transform="scale(1 1) rotate(0) translate(4 997.4)">
<title>G</title>
<polygon fill="#ffffff" stroke="transparent" points="-4,4 -4,-997.4 2386,-997.4 2386,4 -4,4"/>
<text text-anchor="middle" x="1191" y="-8.2" font-family="Times,serif" font-size="14.00" fill="#000000">Tesla model S 75</text>
<g id="clust1" class="cluster">
<title>cluster_tesla_autopilot</title>
<polygon fill="none" stroke="#000000" points="70,-215.2 70,-985.4 1906,-985.4 1906,-215.2 70,-215.2"/>
<text text-anchor="middle" x="988" y="-968.8" font-family="Times,serif" font-size="14.00" fill="#000000">Tesla Autopilot ADAS</text>
</g>
<g id="clust2" class="cluster">
<title>cluster_ape2_5_input</title>
<polygon fill="none" stroke="#000000" points="1370,-684.2 1370,-761 1898,-761 1898,-684.2 1370,-684.2"/>
<text text-anchor="middle" x="1634" y="-744.4" font-family="Times,serif" font-size="14.00" fill="#000000">INPUT</text>
</g>
<g id="clust3" class="cluster">
<title>cluster_ape2_5_output</title>
<polygon fill="none" stroke="#000000" points="94,-223.2 94,-300 288,-300 288,-223.2 94,-223.2"/>
<text text-anchor="middle" x="191" y="-283.4" font-family="Times,serif" font-size="14.00" fill="#000000">OUTPUT</text>
</g>
<g id="clust4" class="cluster">
<title>cluster_ape2_5_software</title>
<polygon fill="none" stroke="#000000" points="135,-372.8 135,-449.6 858,-449.6 858,-372.8 135,-372.8"/>
<text text-anchor="middle" x="496.5" y="-433" font-family="Times,serif" font-size="14.00" fill="#000000">Autopilot software 2018.6.1</text>
</g>
<g id="clust5" class="cluster">
<title>cluster_ape2_5_hardware</title>
<polygon fill="none" stroke="#000000" points="866,-223.2 866,-952.6 1362,-952.6 1362,-223.2 866,-223.2"/>
<text text-anchor="middle" x="1114" y="-936" font-family="Times,serif" font-size="14.00" fill="#000000">APE 2.5 hardware</text>
</g>
<g id="clust6" class="cluster">
<title>cluster_camera_tesla_model_S_75</title>
<polygon fill="none" stroke="#000000" points="1914,-780 1914,-856.8 2374,-856.8 2374,-780 1914,-780"/>
<text text-anchor="middle" x="2144" y="-840.2" font-family="Times,serif" font-size="14.00" fill="#000000">Camera</text>
</g>
<g id="clust7" class="cluster">
<title>cluster_can_tesla_model_5_75</title>
<polygon fill="none" stroke="#000000" points="8,-105.6 8,-182.4 387,-182.4 387,-105.6 8,-105.6"/>
<text text-anchor="middle" x="197.5" y="-165.8" font-family="Times,serif" font-size="14.00" fill="#000000">CAN system</text>
</g>
<!-- APE 2.5 INPUT1 -->
<g id="node1" class="node">
<title>APE 2.5 INPUT1</title>
<ellipse fill="none" stroke="#000000" cx="1457" cy="-710.2" rx="79.3579" ry="18"/>
<text text-anchor="middle" x="1457" y="-706" font-family="Times,serif" font-size="14.00" fill="#000000">APE 2.5 INPUT1</text>
</g>
<!-- Ethernet switch -->
<g id="node4" class="node">
<title>Ethernet switch</title>
<ellipse fill="none" stroke="#000000" cx="1183" cy="-901.8" rx="71.2445" ry="18"/>
<text text-anchor="middle" x="1183" y="-897.6" font-family="Times,serif" font-size="14.00" fill="#000000">Ethernet switch</text>
</g>
<!-- APE 2.5 INPUT1&#45;&gt;Ethernet switch -->
<g id="edge1" class="edge">
<title>APE 2.5 INPUT1-&gt;Ethernet switch</title>
<path fill="none" stroke="#000000" d="M1435.7326,-727.6628C1419.6527,-741.2634 1397.381,-760.9697 1379.5764,-780 1346.4135,-815.4459 1352.3909,-838.8785 1312,-865.8 1295.0348,-877.1077 1274.5571,-884.8927 1254.9634,-890.2415"/>
<polygon fill="#000000" stroke="#000000" points="1253.9544,-886.8868 1245.1293,-892.7492 1255.6841,-893.6697 1253.9544,-886.8868"/>
<text text-anchor="middle" x="1402.7118" y="-801.8" font-family="Times,serif" font-size="14.00" fill="#000000">Ethernet</text>
</g>
<!-- APE 2.5 INPUT2 -->
<g id="node2" class="node">
<title>APE 2.5 INPUT2</title>
<ellipse fill="none" stroke="#000000" cx="1811" cy="-710.2" rx="79.3579" ry="18"/>
<text text-anchor="middle" x="1811" y="-706" font-family="Times,serif" font-size="14.00" fill="#000000">APE 2.5 INPUT2</text>
</g>
<!-- Camera controllers -->
<g id="node5" class="node">
<title>Camera controllers</title>
<ellipse fill="none" stroke="#000000" cx="1269" cy="-249.2" rx="84.5468" ry="18"/>
<text text-anchor="middle" x="1269" y="-245" font-family="Times,serif" font-size="14.00" fill="#000000">Camera controllers</text>
</g>
<!-- APE 2.5 INPUT2&#45;&gt;Camera controllers -->
<g id="edge2" class="edge">
<title>APE 2.5 INPUT2-&gt;Camera controllers</title>
<path fill="none" stroke="#000000" d="M1764.0933,-695.6694C1750.5724,-691.7063 1735.7568,-687.5783 1722,-684.2 1661.6213,-669.3724 1597,-683.5727 1597,-621.4 1597,-621.4 1597,-621.4 1597,-335.4 1597,-286.2823 1457.677,-264.5738 1360.6358,-255.4106"/>
<polygon fill="#000000" stroke="#000000" points="1360.7772,-251.909 1350.5001,-254.4843 1360.14,-258.88 1360.7772,-251.909"/>
</g>
<!-- APE 2.5 INPUT3 -->
<g id="node3" class="node">
<title>APE 2.5 INPUT3</title>
<ellipse fill="none" stroke="#000000" cx="1634" cy="-710.2" rx="79.3579" ry="18"/>
<text text-anchor="middle" x="1634" y="-706" font-family="Times,serif" font-size="14.00" fill="#000000">APE 2.5 INPUT3</text>
</g>
<!-- APE tegra -->
<g id="node6" class="node">
<title>APE tegra</title>
<ellipse fill="none" stroke="#000000" cx="1192" cy="-548.4" rx="50.9804" ry="18"/>
<text text-anchor="middle" x="1192" y="-544.2" font-family="Times,serif" font-size="14.00" fill="#000000">APE tegra</text>
</g>
<!-- APE 2.5 INPUT3&#45;&gt;APE tegra -->
<g id="edge3" class="edge">
<title>APE 2.5 INPUT3-&gt;APE tegra</title>
<path fill="none" stroke="#000000" d="M1585.5826,-695.7387C1572.4403,-691.8999 1558.1956,-687.8181 1545,-684.2 1527.7429,-679.4683 1522.8562,-680.2056 1506,-674.2 1416.4994,-642.3125 1400.8373,-618.0912 1312,-584.4 1289.602,-575.9057 1264.2663,-568.0572 1242.6658,-561.8709"/>
<polygon fill="#000000" stroke="#000000" points="1243.6029,-558.4988 1233.028,-559.1492 1241.7004,-565.2353 1243.6029,-558.4988"/>
<text text-anchor="middle" x="1451.2181" y="-617.2" font-family="Times,serif" font-size="14.00" fill="#000000">3G/Wi-Fi</text>
</g>
<!-- Mobile device -->
<g id="node21" class="node">
<title>Mobile device</title>
<ellipse fill="none" stroke="#000000" cx="1981" cy="-621.4" rx="66.5931" ry="18"/>
<text text-anchor="middle" x="1981" y="-617.2" font-family="Times,serif" font-size="14.00" fill="#000000">Mobile device</text>
</g>
<!-- APE 2.5 INPUT3&#45;&gt;Mobile device -->
<g id="edge34" class="edge">
<title>APE 2.5 INPUT3-&gt;Mobile device</title>
<path fill="none" stroke="#000000" d="M1652.7164,-692.4818C1666.5031,-680.5181 1686.3057,-665.4851 1706.5638,-657.4 1741.7451,-643.359 1837.6784,-632.9586 1906.1928,-627.04"/>
<polygon fill="#000000" stroke="#000000" points="1906.8474,-630.4971 1916.5156,-626.164 1906.2555,-623.5222 1906.8474,-630.4971"/>
<text text-anchor="middle" x="1733.2181" y="-661.6" font-family="Times,serif" font-size="14.00" fill="#000000">3G/Wi-Fi</text>
</g>
<!-- Ethernet switch&#45;&gt;APE 2.5 INPUT1 -->
<g id="edge19" class="edge">
<title>Ethernet switch-&gt;APE 2.5 INPUT1</title>
<path fill="none" stroke="#000000" d="M1252.5138,-897.5151C1315.7299,-892.1475 1402.7427,-880.5894 1427,-856.8 1458.3284,-826.0758 1461.3762,-772.0763 1459.8239,-738.8901"/>
<polygon fill="#000000" stroke="#000000" points="1463.2901,-738.2519 1459.1553,-728.4972 1456.3046,-738.7013 1463.2901,-738.2519"/>
<text text-anchor="middle" x="1481.7118" y="-801.8" font-family="Times,serif" font-size="14.00" fill="#000000">Ethernet</text>
</g>
<!-- Ethernet switch&#45;&gt;APE tegra -->
<g id="edge18" class="edge">
<title>Ethernet switch-&gt;APE tegra</title>
<path fill="none" stroke="#000000" d="M1227.7668,-887.6873C1263.2852,-873.3704 1307,-847.3503 1307,-806 1307,-806 1307,-806 1307,-621.4 1307,-589.712 1275.4924,-571.1964 1245.4613,-560.7455"/>
<polygon fill="#000000" stroke="#000000" points="1246.3963,-557.3695 1235.8046,-557.6292 1244.2465,-564.0312 1246.3963,-557.3695"/>
<text text-anchor="middle" x="1330.7118" y="-706" font-family="Times,serif" font-size="14.00" fill="#000000">Ethernet</text>
</g>
<!-- LB aurix -->
<g id="node8" class="node">
<title>LB aurix</title>
<ellipse fill="none" stroke="#000000" cx="920" cy="-548.4" rx="45.7654" ry="18"/>
<text text-anchor="middle" x="920" y="-544.2" font-family="Times,serif" font-size="14.00" fill="#000000">LB aurix</text>
</g>
<!-- Ethernet switch&#45;&gt;LB aurix -->
<g id="edge17" class="edge">
<title>Ethernet switch-&gt;LB aurix</title>
<path fill="none" stroke="#000000" d="M1117.9977,-894.3055C1065.4013,-887.5997 995.9599,-877.1064 970,-865.8 929.9511,-848.3574 892,-849.6824 892,-806 892,-806 892,-806 892,-621.4 892,-605.3436 897.9782,-588.5395 904.4099,-575.1069"/>
<polygon fill="#000000" stroke="#000000" points="907.6415,-576.4753 909.0943,-565.9806 901.414,-573.2788 907.6415,-576.4753"/>
<text text-anchor="middle" x="915.7118" y="-706" font-family="Times,serif" font-size="14.00" fill="#000000">Ethernet</text>
</g>
<!-- APE&#45;B tegra -->
<g id="node13" class="node">
<title>APE-B tegra</title>
<ellipse fill="none" stroke="#000000" cx="1044" cy="-548.4" rx="60.7907" ry="18"/>
<text text-anchor="middle" x="1044" y="-544.2" font-family="Times,serif" font-size="14.00" fill="#000000">APE-B tegra</text>
</g>
<!-- Ethernet switch&#45;&gt;APE&#45;B tegra -->
<g id="edge16" class="edge">
<title>Ethernet switch-&gt;APE-B tegra</title>
<path fill="none" stroke="#000000" d="M1169.9412,-884.0925C1157.612,-865.591 1141,-835.2378 1141,-806 1141,-806 1141,-806 1141,-621.4 1141,-595.3509 1118.3908,-577.439 1095.0033,-565.8789"/>
<polygon fill="#000000" stroke="#000000" points="1096.248,-562.5991 1085.6997,-561.6069 1093.3269,-568.9605 1096.248,-562.5991"/>
<text text-anchor="middle" x="1164.7118" y="-706" font-family="Times,serif" font-size="14.00" fill="#000000">Ethernet</text>
</g>
<!-- Camera controllers&#45;&gt;APE tegra -->
<g id="edge7" class="edge">
<title>Camera controllers-&gt;APE tegra</title>
<path fill="none" stroke="#000000" d="M1241.7799,-266.5618C1221.3907,-281.912 1197,-306.3465 1197,-335.4 1197,-485 1197,-485 1197,-485 1197,-496.5104 1196.1708,-509.1599 1195.1878,-520.112"/>
<polygon fill="#000000" stroke="#000000" points="1191.6723,-520.0992 1194.1785,-530.3933 1198.6389,-520.7831 1191.6723,-520.0992"/>
<text text-anchor="middle" x="1207.8899" y="-394.6" font-family="Times,serif" font-size="14.00" fill="#000000">CSI</text>
</g>
<!-- APE tegra&#45;&gt;APE 2.5 INPUT3 -->
<g id="edge11" class="edge">
<title>APE tegra-&gt;APE 2.5 INPUT3</title>
<path fill="none" stroke="#000000" d="M1242.3399,-551.4775C1301.6968,-556.5494 1402.3495,-569.7281 1482,-603.4 1495.0348,-608.9104 1561.6449,-657.0671 1602.2399,-686.8026"/>
<polygon fill="#000000" stroke="#000000" points="1600.3455,-689.7536 1610.4789,-692.8462 1604.4858,-684.1093 1600.3455,-689.7536"/>
<text text-anchor="middle" x="1561.2181" y="-617.2" font-family="Times,serif" font-size="14.00" fill="#000000">3G/Wi-Fi</text>
</g>
<!-- APE tegra&#45;&gt;Ethernet switch -->
<g id="edge8" class="edge">
<title>APE tegra-&gt;Ethernet switch</title>
<path fill="none" stroke="#000000" d="M1204.6472,-566.0611C1213.5918,-580.2942 1224,-601.1968 1224,-621.4 1224,-806 1224,-806 1224,-806 1224,-830.917 1212.1324,-856.7525 1201.1669,-875.3059"/>
<polygon fill="#000000" stroke="#000000" points="1198.0425,-873.7032 1195.7479,-884.0466 1203.9919,-877.3917 1198.0425,-873.7032"/>
<text text-anchor="middle" x="1247.7118" y="-706" font-family="Times,serif" font-size="14.00" fill="#000000">Ethernet</text>
</g>
<!-- APE tegra&#45;&gt;Camera controllers -->
<g id="edge9" class="edge">
<title>APE tegra-&gt;Camera controllers</title>
<path fill="none" stroke="#000000" d="M1225.0498,-534.3674C1243.9774,-523.8862 1264,-507.4848 1264,-485 1264,-485 1264,-485 1264,-335.4 1264,-316.094 1265.2655,-294.3965 1266.5231,-277.5999"/>
<polygon fill="#000000" stroke="#000000" points="1270.0348,-277.5894 1267.3351,-267.3443 1263.0567,-277.0368 1270.0348,-277.5894"/>
<text text-anchor="middle" x="1274.8899" y="-394.6" font-family="Times,serif" font-size="14.00" fill="#000000">CSI</text>
</g>
<!-- Cantx service -->
<g id="node9" class="node">
<title>Cantx service</title>
<ellipse fill="none" stroke="#000000" cx="207" cy="-398.8" rx="63.7222" ry="18"/>
<text text-anchor="middle" x="207" y="-394.6" font-family="Times,serif" font-size="14.00" fill="#000000">Cantx service</text>
</g>
<!-- APE tegra&#45;&gt;Cantx service -->
<g id="edge12" class="edge">
<title>APE tegra-&gt;Cantx service</title>
<path fill="none" stroke="#000000" d="M1150.5042,-537.7685C1138.764,-535.0488 1125.9332,-532.3465 1114,-530.4 1102.5142,-528.5265 290.9229,-453.6153 280,-449.6 263.3567,-443.4818 246.9548,-432.6295 233.9272,-422.5219"/>
<polygon fill="#000000" stroke="#000000" points="235.8684,-419.5913 225.8849,-416.0445 231.4776,-425.043 235.8684,-419.5913"/>
</g>
<!-- Canrx service -->
<g id="node10" class="node">
<title>Canrx service</title>
<ellipse fill="none" stroke="#000000" cx="545" cy="-398.8" rx="64.2844" ry="18"/>
<text text-anchor="middle" x="545" y="-394.6" font-family="Times,serif" font-size="14.00" fill="#000000">Canrx service</text>
</g>
<!-- APE tegra&#45;&gt;Canrx service -->
<g id="edge13" class="edge">
<title>APE tegra-&gt;Canrx service</title>
<path fill="none" stroke="#000000" d="M1149.5508,-538.336C1138.0328,-535.6785 1125.5527,-532.8658 1114,-530.4 949.668,-495.3255 909.6352,-479.2322 743,-457.6 715.6169,-454.0452 645.0958,-458.6264 619,-449.6 602.0869,-443.7499 585.4561,-432.9251 572.258,-422.7664"/>
<polygon fill="#000000" stroke="#000000" points="574.1063,-419.7627 564.1122,-416.2458 569.7318,-425.2275 574.1063,-419.7627"/>
</g>
<!-- Lane recognition function -->
<g id="node11" class="node">
<title>Lane recognition function</title>
<ellipse fill="none" stroke="#000000" cx="739" cy="-398.8" rx="111.1615" ry="18"/>
<text text-anchor="middle" x="739" y="-394.6" font-family="Times,serif" font-size="14.00" fill="#000000">Lane recognition function</text>
</g>
<!-- APE tegra&#45;&gt;Lane recognition function -->
<g id="edge14" class="edge">
<title>APE tegra-&gt;Lane recognition function</title>
<path fill="none" stroke="#000000" d="M1164.2162,-533.2882C1123.8746,-512.1673 1046.1177,-474.5135 975,-457.6 926.0182,-445.9509 911.0086,-461.1357 862,-449.6 834.3278,-443.0865 804.8408,-431.0983 781.6765,-420.403"/>
<polygon fill="#000000" stroke="#000000" points="783.0215,-417.1678 772.4833,-416.0737 780.0391,-423.5007 783.0215,-417.1678"/>
</g>
<!-- Autowiper function -->
<g id="node12" class="node">
<title>Autowiper function</title>
<ellipse fill="none" stroke="#000000" cx="376" cy="-398.8" rx="86.8609" ry="18"/>
<text text-anchor="middle" x="376" y="-394.6" font-family="Times,serif" font-size="14.00" fill="#000000">Autowiper function</text>
</g>
<!-- APE tegra&#45;&gt;Autowiper function -->
<g id="edge15" class="edge">
<title>APE tegra-&gt;Autowiper function</title>
<path fill="none" stroke="#000000" d="M1150.0282,-538.0758C1138.3982,-535.3895 1125.7425,-532.6273 1114,-530.4 1004.51,-509.6323 975.9148,-511.7876 866,-493.4 779.9547,-479.0055 759.6983,-467.3154 673,-457.6 628.576,-452.6219 515.1621,-461.2321 472,-449.6 450.1391,-443.7085 427.6664,-432.1684 409.9647,-421.5743"/>
<polygon fill="#000000" stroke="#000000" points="411.5209,-418.4221 401.1713,-416.1554 407.8484,-424.3814 411.5209,-418.4221"/>
</g>
<!-- GPU gp106 -->
<g id="node14" class="node">
<title>GPU gp106</title>
<ellipse fill="none" stroke="#000000" cx="1109" cy="-249.2" rx="56.8084" ry="18"/>
<text text-anchor="middle" x="1109" y="-245" font-family="Times,serif" font-size="14.00" fill="#000000">GPU gp106</text>
</g>
<!-- APE tegra&#45;&gt;GPU gp106 -->
<g id="edge10" class="edge">
<title>APE tegra-&gt;GPU gp106</title>
<path fill="none" stroke="#000000" d="M1157.362,-534.863C1138.415,-524.0457 1119,-507.0524 1119,-485 1119,-485 1119,-485 1119,-335.4 1119,-315.7894 1114.2523,-294.2452 1110.6277,-277.6007"/>
<polygon fill="#000000" stroke="#000000" points="1113.9708,-276.4943 1108.4691,-267.44 1107.1236,-277.949 1113.9708,-276.4943"/>
</g>
<!-- APE 2.5 OUTPUT1 -->
<g id="node7" class="node">
<title>APE 2.5 OUTPUT1</title>
<ellipse fill="none" stroke="#000000" cx="191" cy="-249.2" rx="89.1699" ry="18"/>
<text text-anchor="middle" x="191" y="-245" font-family="Times,serif" font-size="14.00" fill="#000000">APE 2.5 OUTPUT1</text>
</g>
<!-- EPB ECU -->
<g id="node18" class="node">
<title>EPB ECU</title>
<ellipse fill="none" stroke="#000000" cx="66" cy="-131.6" rx="50.4394" ry="18"/>
<text text-anchor="middle" x="66" y="-127.4" font-family="Times,serif" font-size="14.00" fill="#000000">EPB ECU</text>
</g>
<!-- APE 2.5 OUTPUT1&#45;&gt;EPB ECU -->
<g id="edge30" class="edge">
<title>APE 2.5 OUTPUT1-&gt;EPB ECU</title>
<path fill="none" stroke="#000000" d="M172.2862,-231.5941C150.7766,-211.3579 115.3623,-178.04 91.3812,-155.4787"/>
<polygon fill="#000000" stroke="#000000" points="93.7107,-152.8648 84.029,-148.5617 88.9142,-157.9631 93.7107,-152.8648"/>
<text text-anchor="middle" x="158.7749" y="-194.6" font-family="Times,serif" font-size="14.00" fill="#000000">CAN</text>
</g>
<!-- EPAS ECU -->
<g id="node19" class="node">
<title>EPAS ECU</title>
<ellipse fill="none" stroke="#000000" cx="191" cy="-131.6" rx="56.2385" ry="18"/>
<text text-anchor="middle" x="191" y="-127.4" font-family="Times,serif" font-size="14.00" fill="#000000">EPAS ECU</text>
</g>
<!-- APE 2.5 OUTPUT1&#45;&gt;EPAS ECU -->
<g id="edge31" class="edge">
<title>APE 2.5 OUTPUT1-&gt;EPAS ECU</title>
<path fill="none" stroke="#000000" d="M191,-231.0827C191,-212.1466 191,-182.1692 191,-160.0666"/>
<polygon fill="#000000" stroke="#000000" points="194.5001,-159.9316 191,-149.9316 187.5001,-159.9317 194.5001,-159.9316"/>
<text text-anchor="middle" x="205.7749" y="-194.6" font-family="Times,serif" font-size="14.00" fill="#000000">CAN</text>
</g>
<!-- Wiper ECU -->
<g id="node20" class="node">
<title>Wiper ECU</title>
<ellipse fill="none" stroke="#000000" cx="322" cy="-131.6" rx="56.7814" ry="18"/>
<text text-anchor="middle" x="322" y="-127.4" font-family="Times,serif" font-size="14.00" fill="#000000">Wiper ECU</text>
</g>
<!-- APE 2.5 OUTPUT1&#45;&gt;Wiper ECU -->
<g id="edge32" class="edge">
<title>APE 2.5 OUTPUT1-&gt;Wiper ECU</title>
<path fill="none" stroke="#000000" d="M210.612,-231.5941C233.0253,-211.4735 269.8446,-178.4204 294.9685,-155.8665"/>
<polygon fill="#000000" stroke="#000000" points="297.5782,-158.2272 302.6815,-148.9424 292.902,-153.0182 297.5782,-158.2272"/>
<text text-anchor="middle" x="271.7749" y="-194.6" font-family="Times,serif" font-size="14.00" fill="#000000">CAN</text>
</g>
<!-- LB aurix&#45;&gt;Ethernet switch -->
<g id="edge25" class="edge">
<title>LB aurix-&gt;Ethernet switch</title>
<path fill="none" stroke="#000000" d="M941.7375,-564.4192C957.1109,-577.7468 975,-598.2326 975,-621.4 975,-806 975,-806 975,-806 975,-838.6706 1060.7286,-868.8771 1122.1113,-886.318"/>
<polygon fill="#000000" stroke="#000000" points="1121.5447,-889.7936 1132.1175,-889.1104 1123.4263,-883.0512 1121.5447,-889.7936"/>
<text text-anchor="middle" x="998.7118" y="-706" font-family="Times,serif" font-size="14.00" fill="#000000">Ethernet</text>
</g>
<!-- LB aurix&#45;&gt;APE 2.5 OUTPUT1 -->
<g id="edge4" class="edge">
<title>LB aurix-&gt;APE 2.5 OUTPUT1</title>
<path fill="none" stroke="#000000" d="M874.2289,-547.2942C701.0922,-542.8146 96,-524.3445 96,-485 96,-485 96,-485 96,-335.4 96,-306.6396 120.1752,-284.9601 144.1349,-270.5363"/>
<polygon fill="#000000" stroke="#000000" points="145.9425,-273.5348 152.9073,-265.5509 142.4838,-267.449 145.9425,-273.5348"/>
<text text-anchor="middle" x="110.7749" y="-394.6" font-family="Times,serif" font-size="14.00" fill="#000000">CAN</text>
</g>
<!-- Cantx service&#45;&gt;APE 2.5 OUTPUT1 -->
<g id="edge5" class="edge">
<title>Cantx service-&gt;APE 2.5 OUTPUT1</title>
<path fill="none" stroke="#000000" d="M205.07,-380.7547C202.3191,-355.0336 197.2452,-307.5922 194.0011,-277.2607"/>
<polygon fill="#000000" stroke="#000000" points="197.4805,-276.8803 192.9368,-267.3093 190.5202,-277.6248 197.4805,-276.8803"/>
<text text-anchor="middle" x="216.7749" y="-331.2" font-family="Times,serif" font-size="14.00" fill="#000000">CAN</text>
</g>
<!-- Cantx service&#45;&gt;LB aurix -->
<g id="edge6" class="edge">
<title>Cantx service-&gt;LB aurix</title>
<path fill="none" stroke="#000000" d="M228.009,-415.88C242.0687,-426.6737 261.3494,-440.2917 280,-449.6 335.7292,-477.4137 353.0155,-477.0632 413.1192,-493.4 451.6807,-503.8814 461.4841,-506.4554 501,-512.4 630.2102,-531.8379 783.535,-541.6922 864.1114,-545.8627"/>
<polygon fill="#000000" stroke="#000000" points="864.3513,-549.3793 874.5158,-546.3904 864.7059,-542.3883 864.3513,-549.3793"/>
<text text-anchor="middle" x="457.9404" y="-480.8" font-family="Times,serif" font-size="14.00" fill="#000000">APE2LB_CAN</text>
</g>
<!-- APE&#45;B tegra&#45;&gt;Ethernet switch -->
<g id="edge20" class="edge">
<title>APE-B tegra-&gt;Ethernet switch</title>
<path fill="none" stroke="#000000" d="M1049.4529,-566.5157C1053.3838,-581.176 1058,-602.4303 1058,-621.4 1058,-806 1058,-806 1058,-806 1058,-843.988 1094.8188,-868.9598 1128.4914,-883.8545"/>
<polygon fill="#000000" stroke="#000000" points="1127.2968,-887.1488 1137.8721,-887.7908 1130.0053,-880.6941 1127.2968,-887.1488"/>
<text text-anchor="middle" x="1081.7118" y="-706" font-family="Times,serif" font-size="14.00" fill="#000000">Ethernet</text>
</g>
<!-- APE&#45;B tegra&#45;&gt;Cantx service -->
<g id="edge21" class="edge">
<title>APE-B tegra-&gt;Cantx service</title>
<path fill="none" stroke="#000000" d="M1000.8445,-535.7383C992.3414,-533.6427 983.4389,-531.7245 975,-530.4 834.2758,-508.3124 796.266,-530.7049 655,-512.4 613.1626,-506.9788 603.0262,-503.2286 562,-493.4 534.6533,-486.8486 528.5867,-482.0532 501,-476.6 403.9259,-457.4109 372.4422,-484.8994 280,-449.6 263.5528,-443.3196 247.2748,-432.5558 234.2781,-422.5485"/>
<polygon fill="#000000" stroke="#000000" points="236.242,-419.6379 226.2425,-416.1362 231.8758,-425.1094 236.242,-419.6379"/>
</g>
<!-- APE&#45;B tegra&#45;&gt;Canrx service -->
<g id="edge22" class="edge">
<title>APE-B tegra-&gt;Canrx service</title>
<path fill="none" stroke="#000000" d="M1000.4549,-535.7687C992.0657,-533.6974 983.3045,-531.7804 975,-530.4 921.8035,-521.5577 782.5172,-533.7564 733,-512.4 699.8377,-498.0974 705.6196,-473.1006 673,-457.6 651.0864,-447.1868 641.5818,-458.4715 619,-449.6 602.4621,-443.1029 585.9758,-432.3155 572.776,-422.3486"/>
<polygon fill="#000000" stroke="#000000" points="574.6447,-419.3671 564.609,-415.9707 570.3362,-424.8841 574.6447,-419.3671"/>
</g>
<!-- APE&#45;B tegra&#45;&gt;Lane recognition function -->
<g id="edge23" class="edge">
<title>APE-B tegra-&gt;Lane recognition function</title>
<path fill="none" stroke="#000000" d="M1010.0379,-533.2661C996.0351,-526.9375 979.6809,-519.4316 965,-512.4 900.5281,-481.5205 826.6675,-443.9789 781.427,-420.7338"/>
<polygon fill="#000000" stroke="#000000" points="782.9901,-417.6019 772.4967,-416.1399 779.788,-423.8266 782.9901,-417.6019"/>
</g>
<!-- APE&#45;B tegra&#45;&gt;Autowiper function -->
<g id="edge24" class="edge">
<title>APE-B tegra-&gt;Autowiper function</title>
<path fill="none" stroke="#000000" d="M1000.8429,-535.748C992.34,-533.6516 983.438,-531.7306 975,-530.4 837.7982,-508.7642 799.078,-540.243 663,-512.4 592.6457,-498.0048 580.1297,-477.043 511,-457.6 493.9666,-452.8093 488.6545,-455.5761 472,-449.6 451.4452,-442.2244 429.8409,-431.1255 412.3433,-421.1815"/>
<polygon fill="#000000" stroke="#000000" points="414.002,-418.0976 403.5948,-416.1126 410.4926,-424.1544 414.002,-418.0976"/>
</g>
<!-- GPU gp106&#45;&gt;APE tegra -->
<g id="edge26" class="edge">
<title>GPU gp106-&gt;APE tegra</title>
<path fill="none" stroke="#000000" d="M1122.1054,-266.7803C1129.7625,-284.0268 1137,-311.1873 1137,-335.4 1137,-485 1137,-485 1137,-485 1137,-501.6786 1148.1057,-515.4633 1160.414,-525.871"/>
<polygon fill="#000000" stroke="#000000" points="1158.5299,-528.8397 1168.5714,-532.2191 1162.829,-523.3154 1158.5299,-528.8397"/>
</g>
<!-- Narrow camera -->
<g id="node15" class="node">
<title>Narrow camera</title>
<ellipse fill="none" stroke="#000000" cx="2153" cy="-806" rx="70.6246" ry="18"/>
<text text-anchor="middle" x="2153" y="-801.8" font-family="Times,serif" font-size="14.00" fill="#000000">Narrow camera</text>
</g>
<!-- Narrow camera&#45;&gt;APE 2.5 INPUT2 -->
<g id="edge27" class="edge">
<title>Narrow camera-&gt;APE 2.5 INPUT2</title>
<path fill="none" stroke="#000000" d="M2109.9534,-791.5394C2098.0251,-787.6608 2085.0447,-783.5589 2073,-780 2005.5681,-760.0757 1927.6275,-739.6386 1874.3993,-726.0705"/>
<polygon fill="#000000" stroke="#000000" points="1874.9793,-722.6067 1864.4252,-723.5347 1873.2545,-729.3908 1874.9793,-722.6067"/>
</g>
<!-- Main camera -->
<g id="node16" class="node">
<title>Main camera</title>
<ellipse fill="none" stroke="#000000" cx="2304" cy="-806" rx="61.9156" ry="18"/>
<text text-anchor="middle" x="2304" y="-801.8" font-family="Times,serif" font-size="14.00" fill="#000000">Main camera</text>
</g>
<!-- Main camera&#45;&gt;APE 2.5 INPUT2 -->
<g id="edge28" class="edge">
<title>Main camera-&gt;APE 2.5 INPUT2</title>
<path fill="none" stroke="#000000" d="M2267.9326,-791.3111C2256.8623,-787.2064 2244.5517,-783.0418 2233,-780 2116.6062,-749.3513 1978.4356,-729.5321 1892.721,-719.1152"/>
<polygon fill="#000000" stroke="#000000" points="1893.1371,-715.6401 1882.791,-717.922 1892.302,-722.5901 1893.1371,-715.6401"/>
</g>
<!-- Fisheye camera -->
<g id="node17" class="node">
<title>Fisheye camera</title>
<ellipse fill="none" stroke="#000000" cx="1993" cy="-806" rx="71.2252" ry="18"/>
<text text-anchor="middle" x="1993" y="-801.8" font-family="Times,serif" font-size="14.00" fill="#000000">Fisheye camera</text>
</g>
<!-- Fisheye camera&#45;&gt;APE 2.5 INPUT2 -->
<g id="edge29" class="edge">
<title>Fisheye camera-&gt;APE 2.5 INPUT2</title>
<path fill="none" stroke="#000000" d="M1962.1262,-789.7488C1931.7202,-773.7439 1885.1037,-749.2062 1851.6876,-731.6169"/>
<polygon fill="#000000" stroke="#000000" points="1853.1163,-728.4137 1842.637,-726.8529 1849.8557,-734.6079 1853.1163,-728.4137"/>
</g>
<!-- Steering -->
<g id="node22" class="node">
<title>Steering</title>
<ellipse fill="none" stroke="#000000" cx="191" cy="-42.8" rx="43.4357" ry="18"/>
<text text-anchor="middle" x="191" y="-38.6" font-family="Times,serif" font-size="14.00" fill="#000000">Steering</text>
</g>
<!-- EPAS ECU&#45;&gt;Steering -->
<g id="edge35" class="edge">
<title>EPAS ECU-&gt;Steering</title>
<path fill="none" stroke="#000000" d="M191,-113.2006C191,-101.0949 191,-85.0076 191,-71.2674"/>
<polygon fill="#000000" stroke="#000000" points="194.5001,-70.872 191,-60.872 187.5001,-70.8721 194.5001,-70.872"/>
<text text-anchor="middle" x="205.7749" y="-83" font-family="Times,serif" font-size="14.00" fill="#000000">CAN</text>
</g>
<!-- Wiper -->
<g id="node23" class="node">
<title>Wiper</title>
<ellipse fill="none" stroke="#000000" cx="322" cy="-42.8" rx="35.3315" ry="18"/>
<text text-anchor="middle" x="322" y="-38.6" font-family="Times,serif" font-size="14.00" fill="#000000">Wiper</text>
</g>
<!-- Wiper ECU&#45;&gt;Wiper -->
<g id="edge36" class="edge">
<title>Wiper ECU-&gt;Wiper</title>
<path fill="none" stroke="#000000" d="M322,-113.2006C322,-101.0949 322,-85.0076 322,-71.2674"/>
<polygon fill="#000000" stroke="#000000" points="325.5001,-70.872 322,-60.872 318.5001,-70.8721 325.5001,-70.872"/>
<text text-anchor="middle" x="336.7749" y="-83" font-family="Times,serif" font-size="14.00" fill="#000000">CAN</text>
</g>
<!-- Mobile device&#45;&gt;APE 2.5 INPUT3 -->
<g id="edge33" class="edge">
<title>Mobile device-&gt;APE 2.5 INPUT3</title>
<path fill="none" stroke="#000000" d="M1929.915,-633.1121C1877.7387,-645.2437 1794.4744,-665.0717 1723,-684.2 1712.8658,-686.9122 1702.1234,-689.9285 1691.7393,-692.9183"/>
<polygon fill="#000000" stroke="#000000" points="1690.5533,-689.618 1681.9247,-695.7659 1692.5039,-696.3407 1690.5533,-689.618"/>
<text text-anchor="middle" x="1848.2181" y="-661.6" font-family="Times,serif" font-size="14.00" fill="#000000">3G/Wi-Fi</text>
</g>
</g>
</svg>